<?xml version="1.0" encoding="UTF-8" standalone="no"?>
<!-- Created with Inkscape (http://www.inkscape.org/) -->

<svg
   width="37.877583mm"
   height="44.286175mm"
   viewBox="0 0 37.877583 44.286175"
   version="1.1"
   id="svg4625"
   inkscape:version="0.92.1 r15371"
   sodipodi:docname="Logotipo_del_CSIC.svg"
   inkscape:export-filename="csic_1.svg"
   inkscape:export-xdpi="96"
   inkscape:export-ydpi="96"
   xmlns:inkscape="http://www.inkscape.org/namespaces/inkscape"
   xmlns:sodipodi="http://sodipodi.sourceforge.net/DTD/sodipodi-0.dtd"
   xmlns="http://www.w3.org/2000/svg"
   xmlns:svg="http://www.w3.org/2000/svg"
   xmlns:rdf="http://www.w3.org/1999/02/22-rdf-syntax-ns#"
   xmlns:cc="http://creativecommons.org/ns#"
   xmlns:dc="http://purl.org/dc/elements/1.1/">
  <defs
     id="defs4619" />
  <sodipodi:namedview
     id="base"
     pagecolor="#ffffff"
     bordercolor="#666666"
     borderopacity="1.0"
     inkscape:pageopacity="0.0"
     inkscape:pageshadow="2"
     inkscape:zoom="1.0748023"
     inkscape:cx="348.8916"
     inkscape:cy="164.84109"
     inkscape:document-units="mm"
     inkscape:current-layer="layer1"
     showgrid="false"
     fit-margin-top="0"
     fit-margin-left="0"
     fit-margin-right="0"
     fit-margin-bottom="0"
     inkscape:window-width="1366"
     inkscape:window-height="705"
     inkscape:window-x="-8"
     inkscape:window-y="-8"
     inkscape:window-maximized="1"
     inkscape:showpageshadow="2"
     inkscape:pagecheckerboard="0"
     inkscape:deskcolor="#d1d1d1" />
  <metadata
     id="metadata4622">
    <rdf:RDF>
      <cc:Work
         rdf:about="">
        <dc:format>image/svg+xml</dc:format>
        <dc:type
           rdf:resource="http://purl.org/dc/dcmitype/StillImage" />
        <dc:title />
      </cc:Work>
    </rdf:RDF>
  </metadata>
  <g
     inkscape:label="Layer 1"
     inkscape:groupmode="layer"
     id="layer1"
     transform="translate(-92.036996,-200.57734)">
    <path
       d="m 126.95281,241.00075 c 0.22495,0 0.6571,-0.17694 0.6571,-0.17694 0.49704,-0.94429 -1.77656,-2.24246 -1.77656,-2.24246 0,0 -0.48104,0.23465 -0.66421,0.3112 -0.62153,0.2223 1.757,2.10822 1.78367,2.10822 m -9.14153,-0.11216 c 0,0 -0.24363,1.38354 0.57618,2.16779 2.94671,1.58094 6.36911,1.68584 8.87745,0.19029 0.1565,-0.51039 0.41435,-1.24483 0.45081,-1.78724 -2.75198,1.2653 -7.45656,0.42326 -9.90444,-0.57084 M 95.325125,241.407 c 0.0445,0.74689 0.19473,1.49469 0.81537,2.02553 2.57769,1.15324 5.951195,0.72554 8.387515,-0.26319 0.90073,-0.34679 0.72823,-0.95675 0.70867,-2.3483 -2.91025,1.33641 -6.874165,1.74898 -9.911555,0.58596 m 22.697775,-1.11413 c 0.0569,0.11998 0.51928,0.2801 0.88206,0.32278 0.361,-0.0426 0.0614,-1.35776 0.11203,-1.63163 -0.0445,0.0101 -0.99409,0.18223 -0.99409,1.30885 m -14.02572,-1.45557 c 0,0 0,1.84592 -0.0197,1.84592 0.41257,-0.14669 1.10257,-0.30498 1.16036,-0.53172 0.0756,-0.30765 -0.66598,-1.10346 -1.1408,-1.3142 m -7.033325,-0.57527 c -0.59752,0.70777 -1.57916,1.22525 -1.67341,2.4283 -0.0197,0.31478 1.16036,0.32365 1.17993,0.31478 0.71222,-0.55753 1.37998,-0.80116 1.67341,-2.03531 -0.0596,-0.36723 -0.80203,-0.69356 -1.17993,-0.70777 m 7.282295,-0.23819 c 0.01,0.32542 0.88738,0.86871 1.26973,1.57381 0.38234,0.70513 0.32543,1.34709 0.32543,1.3631 3.10586,1.45557 8.23458,1.86369 11.39113,0.26765 0.04,-1.36577 0.39834,-2.32874 1.46356,-2.78666 0.15471,-0.16535 -0.0978,-0.49792 -0.35655,-0.49792 -2.18113,0.86959 -4.25111,1.95526 -6.84037,1.90013 -2.81688,0.24272 -4.8344,-1.73744 -7.25293,-1.82011 m 21.24754,-1.84413 c -0.97897,0.14947 -0.82515,1.67874 -0.71044,2.25847 1.1568,-0.72557 2.71729,-1.07233 3.96035,-0.81003 0.0649,0.008 0.0765,-0.96829 0.0765,-1.42979 0,0 -1.82813,-0.55216 -3.32638,-0.0176 m -31.406285,-0.10943 c -0.0141,0.51307 -0.0676,1.15859 0.0232,1.51425 1.3951,-0.15476 3.35838,0.0577 4.10084,0.69001 l -0.1227,-1.53739 c -0.77713,-1.29996 -2.66305,-0.86072 -4.00125,-0.66687 m 14.397405,-4.50008 v 0.66866 c 0.68377,1.86991 2.9138,1.28839 4.46184,1.76322 0.42324,0.15829 0.85805,0.72199 1.18793,1.02964 0.0925,-3.68914 -3.92835,-1.97217 -5.64977,-3.46152 m 0.50327,-0.79846 -0.22586,0.23919 0.22586,0.17694 z m -4.22355,-4.34003 c -0.20628,0.41613 0.35834,0.93628 0.52283,1.40756 0.66954,2.57857 -2.80088,3.00627 -4.14352,4.35069 -0.51927,0.55839 -0.82692,1.23861 -0.72823,2.00773 0.20895,0.52638 0.78425,0.9932 1.34442,1.04656 0.72645,-0.11645 1.50803,-0.27388 2.02197,-0.88918 0.1565,-0.31208 0,-0.77802 -0.30587,-0.87493 -0.61797,0.47125 -1.19415,0.98964 -2.02908,0.87493 -0.24719,-0.0373 -0.56107,-0.24625 -0.51394,-0.56105 0.8865,-1.66185 2.95648,-1.86727 4.24399,-3.26503 0.6242,-0.7878 0.88117,-1.72055 0.67755,-2.7511 -0.25697,-0.4588 -0.30587,-1.44221 -1.09012,-1.34618 m -3.20723,-0.56106 c -0.51305,0.56106 -0.82959,1.34263 -0.62419,2.16779 0.21074,0.30321 0.26675,0.89005 0.67043,0.93005 1.81479,-0.31831 0.0622,-1.70364 0.31388,-2.69507 0.056,-0.35032 0.36456,-0.78334 0.77891,-0.86603 -0.46771,0.0499 -0.87672,0.15375 -1.13903,0.46326 m 19.21847,-0.61799 c -2.07977,0.46414 -4.19954,1.70099 -6.37711,0.92652 -0.15382,0.36456 0.0551,0.72734 0.31743,0.93008 2.27716,0.92918 4.49207,-0.36012 6.67498,-0.83584 0.25875,0.0623 0.4108,0.31567 0.4108,0.57442 -0.56729,1.04209 -1.80768,1.29817 -2.83645,1.65207 -0.0605,0.22231 0.14317,0.26674 0.24275,0.42858 0.83582,0.61442 1.6085,-0.36012 2.3394,-0.78248 0.66688,-0.61442 1.3462,-1.29817 1.13547,-2.18823 -0.36457,-0.70512 -1.19149,-0.66154 -1.90727,-0.70512 m -6.53094,-0.22584 c -0.20806,0.43035 0.31299,0.46326 0.5664,0.57885 1.0919,0.31743 2.59726,0.26498 3.42241,-0.42681 -1.08834,-0.71045 -2.89602,-0.8029 -3.98881,-0.15199 m -11.34666,-2.27271 c 0.20718,0.16459 0.36989,0.41968 0.62419,0.31655 0.1076,-0.15199 0.31299,-0.20542 0.25964,-0.35922 -0.10137,-0.53084 -0.77535,-0.46238 -0.88383,0.0426 m 5.74935,-0.97008 c -0.16272,0.55216 -0.0462,1.23594 0.1076,1.75254 0.99054,2.1109 3.21079,2.48879 4.97134,3.31127 0.1076,-0.0988 0.1076,-0.25875 0.15561,-0.41613 -0.62152,-2.5857 -3.73361,-3.05073 -5.23453,-4.64768 m 10.81939,-0.15299 c -0.25875,0.0819 -0.71755,0.0401 -0.61619,0.46415 0.88472,0.30765 1.86014,0.50417 2.69684,0.92473 0.35834,0.15375 1.07945,0.46503 1.07945,-0.26586 -0.92562,-0.65887 -2.01129,-1.0412 -3.1601,-1.12302 m -17.90961,0.15298 c -0.20627,0.19736 -0.11024,0.61886 0,0.81538 -0.47037,0.93716 0.31299,1.66006 0.92918,2.1171 0.93185,0.22407 1.86725,0.22407 2.53946,-0.40636 -0.16184,-0.40456 -0.35477,-0.8687 -0.77891,-1.13635 -0.8287,1.04032 -1.76055,-0.2552 -2.487,-0.57439 0.11025,-0.0418 0.15738,-0.26322 0.31743,-0.15199 0.24898,-0.11115 0.78069,-0.26674 0.72023,-0.66331 -0.41524,-0.41792 -0.82426,-0.41792 -1.24039,0 m 13.04231,-0.41792 c -0.31121,0.26498 -0.87316,0.41792 -0.71756,0.92653 0.61531,-0.15375 1.29107,-0.42415 1.65474,-0.92653 -0.26497,-0.11745 -0.66332,-0.0436 -0.93718,0 m 0.88116,-0.67397 c 1.09546,0.15551 1.75433,1.1399 1.96773,2.11976 0.26141,-0.15828 0.63131,-0.10056 0.83671,-0.40902 0.10225,-0.61885 -0.16184,-1.08032 -0.5255,-1.5018 -0.5664,-0.46414 -1.70898,-0.78069 -2.27894,-0.20894 m -6.25707,-0.46594 c -0.26497,0.15198 -0.36722,0.40459 -0.31298,0.714 0.11291,0.22508 0.25786,0.69089 0.46236,0.53795 0.10138,-0.47126 0.10138,-0.94697 -0.14938,-1.25195 m 12.84402,0 c -1.56049,0.714 -2.69774,-1.13812 -4.04483,-0.31299 1.24306,0.56375 2.43099,1.71788 3.98614,1.14258 0.36545,-0.20794 0.93719,-0.47037 0.88472,-1.04121 h -0.26674 z m -19.58125,-0.56907 c -0.66687,0.31032 -1.80767,0.72113 -1.80767,1.54805 0.36544,0.62686 0.87849,-0.0401 1.23861,-0.26498 0.82781,-0.77179 1.76322,-0.0925 2.64082,0.11569 0.11292,-0.36365 -0.20451,-0.73268 -0.40901,-1.04121 -0.41791,-0.46235 -1.04389,-0.35745 -1.66275,-0.35745 m 13.60427,-2.95115 c 0.11826,0.22583 0.11826,0.76559 0.55306,0.65888 0.65176,-0.53971 0.65176,-1.51335 0.5495,-2.28249 -0.5495,0.32544 -1.04032,1.03054 -1.10256,1.62361 m 3.72205,-2.70218 -0.11292,0.58065 c -0.0542,1.0003 0.96119,0.86427 1.32575,1.07589 v -1.07589 c -0.321,-0.50417 -0.74246,-0.43126 -1.21283,-0.58065 m -3.2917,-2.47188 -0.0898,-0.68821 -0.22228,0.68821 z m 4.57299,-2.19712 -0.31832,0.47481 c 0.20095,0.0613 0.25341,0.0781 0.44903,-0.0101 z m 1.2804,-1.50893 c -0.36456,0.30588 -0.88383,0.91763 -0.90873,1.17638 0.0249,0.41434 0.34322,1.67786 0.13603,2.45855 0.36902,0.15375 0.84472,-0.0774 1.16038,-0.16459 0.37967,-1.12212 0.51927,-2.67816 -0.38768,-3.47042 m -20.15209,-0.14139 c 0.25786,0.56463 1.10079,0.62865 1.72765,0.78424 l -0.23029,-0.39834 c -0.43125,-0.61708 -0.84204,-0.7727 -1.49736,-0.3859 m 16.55096,0.063 c -0.30943,0.5015 -0.31565,1.1728 -0.0151,1.69832 0.47571,-0.37079 1.18615,-1.07234 1.49114,-1.49648 -0.25519,-0.46148 -1.01365,-0.83138 -1.47602,-0.20189 m 0.13961,-1.29374 c -5.39102,2.38651 0.55929,7.22804 -1.67963,11.24084 0.49971,0.0933 1.0999,-0.16181 1.37109,-0.60907 1.0919,-2.54301 0.13071,-5.34212 -0.46237,-7.78288 -0.21605,-0.85093 -0.13247,-1.37287 0.52106,-2.00597 0.66243,-0.5664 1.57471,-0.0746 1.88948,0.35211 0.15826,-0.11821 0.72111,-0.60551 0.72111,-0.82603 -0.60019,-0.44814 -1.53826,-0.52728 -2.36074,-0.369 m -18.28839,0.21071 c 0.46236,1.64229 2.0931,0.056 2.73952,0.57172 3.05696,2.60171 -0.94251,5.64443 0.19829,8.92102 0.26052,0.66778 0.68466,1.21726 1.35598,1.53472 0.73356,0.24196 1.74099,0.0176 2.35718,-0.38591 0.10581,-0.37079 -0.28542,-0.68378 -0.55039,-1.05812 -0.25253,0.21878 -0.51305,0.56017 -0.71223,0.76113 -0.26319,0.52905 -0.93273,0.42236 -1.04299,-0.10233 -0.41168,-3.23301 2.25493,-7.29473 -0.70333,-10.03514 -1.06078,-0.80557 -2.55813,-0.78869 -3.64203,-0.20719 m 14.15999,31.91665 c 0.0267,0.0252 0.65976,0 2.84622,-1.11589 2.28428,-1.17994 1.97573,3.3397 1.97573,3.3397 2.41498,1.0341 6.29531,0.70957 6.6083,0.46682 0.30231,-0.25787 -1.27151,-1.13192 -1.77834,-2.07889 -0.44191,-0.83846 -0.37078,-2.59992 0,-2.9947 1.37199,-1.45913 4.8673,-0.44371 4.8673,-0.44371 0.11292,0.33702 -0.0996,2.42921 -0.0996,2.42921 -0.22051,-0.11997 -2.60882,-0.25252 -2.82844,0.21424 0,0 1.14703,0.4206 1.62273,1.48136 0.69533,1.55783 -0.49349,3.88032 -0.49349,3.88032 -4.66457,2.62661 -9.46607,-0.24196 -9.65547,-0.39921 -0.23473,-0.22861 -0.57707,-1.46092 -0.57707,-1.46092 -5.63998,2.31183 -11.44803,-0.26942 -11.44803,-0.26942 0.0596,1.1008 -0.46859,1.741 -0.46859,1.741 -5.924525,2.80443 -9.817295,0.34054 -9.817295,0.34054 -2.23448,-3.57179 0.89895,-5.58842 0.89895,-5.58842 -0.45081,-0.20542 -2.8649,-0.10233 -2.8649,-0.10233 v -2.31272 c 5.31544,-1.20839 5.0478,0.87494 5.10115,2.68973 0.0587,1.80589 -1.81212,2.84889 -1.81212,2.84889 4.106175,0.80648 6.543385,-0.39123 6.543385,-0.39123 0,0 -0.0276,-0.49436 0.0329,-2.57769 0.0534,-2.07977 4.38804,0.16005 4.38804,0.16005 0.93541,-0.64642 0.98698,-4.70726 0.98698,-4.70726 -2.18558,-2.40519 0.1076,-3.67226 0.1076,-3.67226 0.11024,-3.29348 -2.73864,-3.45708 -2.73864,-3.45708 0.6073,3.07117 -0.16539,3.45708 -0.60819,4.22888 -0.43569,0.76113 -4.33202,2.57413 -4.10084,3.06139 0.20895,0.50684 2.19002,-1.08567 2.19002,-1.08567 0.65265,0.64643 0.59841,1.81036 0.59841,1.81036 -0.77002,1.42621 -4.444065,1.64141 -4.22444,-0.93631 0.24096,-2.83021 2.35985,-2.41496 4.1702,-3.88475 1.80946,-1.48136 -0.49171,-3.1939 -0.49171,-3.1939 -0.4348,0.0613 -1.15325,0.50059 -1.15325,0.50059 0.0578,0.54153 0.76913,1.46891 0.76913,1.46891 -0.32455,0.38236 -2.03175,1.10167 -2.03175,1.10167 -0.27475,-0.10308 -0.71311,-0.93716 -0.71311,-0.93716 l -0.49082,0.55128 c 1.10434,4.11772 -2.686175,4.16574 -2.686175,4.16574 l 0.10936,-0.97185 c -0.6571,0.32542 -2.30117,0.16812 -2.30117,0.16812 -0.11027,-1.60673 1.3711,-2.85333 1.3711,-2.85333 -0.16361,-0.0668 -0.43392,-0.50861 -0.43392,-0.50861 1.63607,-1.47334 3.23657,-0.55127 3.23657,-0.55127 l 0.31921,-0.6402 c -0.9354,-1.75967 0.659775,-0.94254 0.659775,-0.94254 0.11203,-1.48312 1.15058,-1.90459 1.15058,-1.90459 -0.048,-0.29165 -0.65887,-0.54952 -0.65887,-0.54952 -2.577705,2.12958 -3.943465,-1.21638 -3.943465,-1.21638 -0.54684,0.0542 -1.37999,-0.38233 -1.37999,-0.38233 0.17071,-0.33167 0.77358,-0.87138 0.77358,-0.87138 -0.2214,-0.12627 -0.60286,-1.4778 -0.60286,-1.4778 0.27742,-0.16711 1.6414,-0.21953 1.6414,-0.21953 0,-0.33432 0.44014,-0.94606 0.44014,-0.94606 0.33522,0.23289 1.15948,1.33285 1.15948,1.33285 0.32365,-0.0613 0.91851,0.20995 0.91851,0.20995 0,-0.2712 0.383235,-0.75846 0.383235,-0.75846 0.0649,-0.1724 -0.860725,-0.6651 -0.860725,-0.6651 l 0.21518,-0.28187 c 0.21073,0 1.255505,0.33611 1.255505,0.33611 2.80088,-1.74898 3.88833,0.16181 3.88833,0.16181 0.33344,2.47899 0.99053,1.80766 0.99053,1.80766 0.11383,-0.22306 -0.10669,-1.35863 -0.10669,-1.35863 h 0.77002 c 0.10581,0.64642 1.36576,2.02996 1.36576,2.02996 -0.056,-2.64083 1.53292,-3.4135 1.53292,-3.4135 -0.16093,-4.11153 -3.562,-5.3119 -3.562,-5.3119 -0.22228,0.81981 -0.5584,3.07208 -0.27564,3.17968 0.27564,0.10762 1.16214,-1.25641 1.16214,-1.25641 1.03321,0.64554 1.2475,1.96063 1.2475,1.96063 -3.55933,2.20067 -4.70725,-1.20839 -4.70725,-1.20839 -0.22763,0.0633 -2.24604,0.39657 -2.24604,0.39657 -0.33521,-0.39657 0.3779,-2.29938 0.3779,-2.29938 -1.323975,-0.0595 -2.079765,1.15057 -2.079765,1.15057 0.55395,2.95382 -3.56468,3.55846 -3.56468,3.55846 0.16273,-0.22054 -0.5006,-0.83226 -0.5006,-0.83226 -0.42946,0.17164 -2.40431,0.33343 -2.40431,0.33343 -0.0578,-1.41822 1.26262,-2.35185 1.26262,-2.35185 -0.16894,-0.16081 -0.49882,-1.2555 -0.49882,-1.2555 2.85778,-1.43156 4.66101,-0.34677 4.66101,-0.34677 1.76056,-1.69121 5.156295,-2.29585 5.156295,-2.29585 0.0462,-0.3939 0.2703,-0.81358 0.2703,-0.81358 0.16273,-0.76114 -2.85067,-0.76114 -2.85067,-0.76114 0.11115,-0.23037 -0.38056,-1.43866 -0.38056,-1.43866 -0.21963,0 -0.659765,0.27831 -0.659765,0.27831 -1.09012,1.58094 -1.26707,0.21601 -1.26707,0.21601 -0.26853,-0.0497 -1.0341,0.55574 -1.0341,0.55574 -0.60107,1.47957 -3.33882,1.47957 -3.33882,1.47957 0.27208,-0.32988 0,-0.77092 0,-0.77092 -0.60997,-0.063 -2.03353,-1.20836 -2.03353,-1.20836 0.43925,-0.38057 1.97573,-1.16393 1.97573,-1.16393 -0.44013,-0.38233 -0.32365,-2.02019 -0.32365,-2.02019 0.26408,0.28809 1.91793,0.6153 1.91793,0.6153 1.52314,0.0479 1.97217,1.69653 1.97217,1.69653 0.54684,0.10485 2.3563,-0.9265 2.3563,-0.9265 -0.38946,-1.64673 -2.1998,-1.93305 -2.1998,-1.93305 -3.82698,1.77033 -4.43161,-1.63786 -4.43161,-1.63786 -0.28009,-0.12451 -1.16392,-0.50414 -1.16392,-0.50414 0.22941,-0.32189 1.26084,-0.80736 1.26084,-0.80736 -0.27031,-0.16887 -0.37701,-1.49114 -0.37701,-1.49114 0.37701,-0.0988 1.86103,0.11821 1.86103,0.11821 -0.0987,-0.33434 0.38589,-1.10167 0.38589,-1.10167 l 0.76913,1.64672 c 0,0 2.31006,-0.66331 1.96595,2.52436 0,0 0.27831,0.329 0.9443,0.5975 0,0 0.38234,-1.19679 0.10402,-1.69829 -0.2792,-0.49081 -0.92829,-1.69565 -1.0919,-1.75166 0,0 0.98787,0.26496 1.1986,0.43925 0,0 0.6562,-0.65621 0.6562,-0.93452 0,0 1.540045,1.65119 1.424455,2.57857 -0.10225,0.93275 -1.266175,1.69477 -1.531155,1.80325 l 0.385015,0.33966 c 0,0 3.95057,-1.65207 5.53863,1.58271 0,0 0.22051,-1.37732 0.10669,-1.70364 0,0 -2.14734,-0.24625 -0.92207,-2.90845 0.53706,-1.19683 -0.12005,-1.6921 -0.12005,-1.6921 0,0 1.75077,0.27831 2.09044,1.59516 0,0 0.92473,-0.7718 0.70155,-1.59516 0,0 1.65652,0.71133 1.21015,3.12987 -0.26852,1.47068 -1.53114,1.69386 -1.53114,1.69386 0,0 -0.88117,2.7911 0.60019,5.10114 0,0 1.37198,-1.20481 1.53292,-1.69829 0,0 -1.08834,-1.64497 -0.27208,-2.85157 0.81981,-1.2066 1.53737,-0.87672 1.86547,-1.15324 0,0 1.04033,-1.25908 1.09545,-1.6005 0,0 0.3859,1.10523 0.21606,1.38354 0,0 1.42711,-0.38324 1.6992,-0.38324 0,0 -0.10937,1.37111 -0.27209,1.5267 0,0 0.76558,0.71224 1.36221,0.50417 0,0 -0.75313,0.92917 -1.19949,1.03677 0,0 -0.65709,3.07385 -3.84209,2.35897 0,0 -1.19415,1.26348 -1.3133,1.64851 0,0 1.3133,1.75609 1.3133,2.18556 0,0 1.70187,-0.55128 2.14734,-0.21777 0,0 2.89424,-1.15592 3.00983,-6.29353 l 0.77002,-0.16988 c 0,0 -0.33255,-1.6005 0,-2.57948 0,0 -2.90224,-3.12629 -0.98964,-4.10794 0,0 0.48993,0.93005 1.09278,1.1977 0,0 0.99409,-0.26765 1.20749,-0.93005 0,0 1.20838,1.64584 0.7718,3.05696 0,0 -1.31241,1.88324 -1.04122,2.84977 0,0 1.26084,-1.51959 3.56378,-1.1328 0,0 -0.27653,-1.87259 0.88562,-3.34505 0,0 0.15826,0.99052 0.75223,1.47246 0.6162,0.49528 0.5006,1.26261 0.33166,1.4858 l 0.71756,-0.27209 c 0,0 -0.88472,-2.58124 1.26173,-3.185 0,0 0.4926,-1.37464 0.81803,-1.74631 l 0.82248,0.93273 c 0,0 0.93185,-0.88028 1.37288,-0.88028 0,0 0.49082,1.42621 0.37789,1.69386 0,0 0.99231,0.11216 1.27062,-0.0507 0,0 -1.04299,1.75077 -1.27062,1.86727 0,0 0.6073,2.94848 -3.7345,2.19357 l -1.35153,1.1977 c 0,0 0.43302,0.66243 0.43302,0.86695 0,0 2.51634,-0.86695 2.95737,-1.30974 0,0 0,1.53381 -0.22495,1.98371 0,0 1.5427,0.43304 2.03352,0.26321 0,0 -0.60463,1.81744 -2.03352,2.03975 0,0 0.50326,0.76912 -0.59841,0.6064 0,0 -0.98698,0.32723 -1.2155,0.64466 0,0 -0.64286,-0.93096 -0.98608,-0.98699 0,0 -1.46802,0.54863 -2.02197,0.28454 0,0 0.28809,-0.88116 0.0578,-1.09102 l -0.2125,-0.23037 0.2125,0.23037 c 0,0 -2.02997,0.089 -1.91793,0.97631 0,0 0.27475,1.58807 0.27475,1.80947 0,0 1.52937,0.27385 1.80145,0.48993 l 0.072,2.08333 -1.71076,-0.55395 c 0,0 -0.5495,2.85776 -2.41142,2.52788 -1.86815,-0.31655 -2.25405,-1.20393 -0.71223,-3.77806 0,0 -3.12276,0.31566 -3.08008,4.59878 0,0 0.17606,0.38233 0.78514,0.16988 0,0 -0.11648,1.0901 -0.2792,1.47513 0,0 1.69031,-1.1506 3.01517,-0.65444 0,0 0.92562,-1.31952 2.62659,-0.71133 0,0 0.88117,0 0.70778,-2.20247 l 0.8287,-0.0534 0.0578,1.22084 c 0,0 1.36932,-0.67221 1.54093,-0.99143 0,0 -0.72022,-1.98018 1.25284,-2.69595 0,0 0.66509,-1.02878 0.98964,-1.14613 0,0 0.43125,1.47778 0.37701,1.81121 0,0 1.64762,-0.27919 2.0353,-0.15828 0,0 -0.22495,1.29996 -0.49438,1.64408 0,0 0.81982,0.36899 1.09635,0.76466 0,0 -2.96538,1.64141 -4.38893,1.03677 0,0 -1.86459,0.54951 -2.19802,0.9852 0,0 0.82959,0.49616 2.13933,-0.32453 v 0.82069 h 0.6162 c 0,0 3.16899,-2.19712 4.43072,0.65444 0,0 0.81893,0.385 1.31686,0.15904 0,0 -0.2214,0.99677 -0.66065,1.09636 0,0 0.66065,1.0501 0.66065,1.59604 0,0 -0.93096,0.27387 -1.47958,0.0542 0,0 0,1.16214 -0.11382,1.48491 0,0 -1.09368,-0.82515 -1.26084,-1.26528 0,0 -2.96716,0.44013 -3.06585,-2.51279 l -0.7131,-0.22759 c 0,0 -0.88294,0.65797 -1.25995,0.77091 0,0 0.98075,0.54417 1.20038,0.81267 0,0 -0.48015,1.26798 -0.86605,1.31688 0,0 -3.40818,-1.74455 -4.33558,-0.55128 0,0 1.69742,0.99854 2.08065,1.42709 0,0 3.56111,-0.81267 2.90135,2.19448 l 0.21964,0.33255 c 0,0 1.76233,0.16812 2.36607,3.29436 0,0 -2.13756,0.55395 -2.69151,-2.51813 0,0 -0.22052,0.096 -0.38412,0.26498 0,0 0.22941,0.54951 0.11382,0.75934 0,0 2.46655,2.42833 -0.82425,5.05139 0,0 -1.21727,-1.36489 -1.21727,-1.98107 0,0 -1.47158,-0.47216 -2.18291,0.33076 0,0 -0.1636,-2.72529 3.18411,-3.01517 l 0.0534,-0.59574 c 0,0 -1.15147,0.71221 -1.64496,0.81893 0,0 -1.10523,0 -2.02908,-1.31508 0,0 3.28814,-1.09457 2.96537,-1.47158 -0.34588,-0.38679 -3.89188,1.85746 -6.47225,0.54505 0,0 -0.28097,0.48905 -0.66065,0.54152 0,0 -1.15147,2.08066 -0.38145,4.11417 0,0 2.54746,1.78011 0.62686,3.66871 0,0 0.30232,2.543 0.74157,2.76975"
       style="fill:#b01220;fill-opacity:1;fill-rule:nonzero;stroke:none;stroke-width:0.889167"
       id="path4593"
       inkscape:connector-curvature="0" />
  </g>
</svg>
