<?xml version="1.0" encoding="UTF-8" standalone="no"?>
<!-- Created with Inkscape (http://www.inkscape.org/) -->

<svg
   version="1.1"
   id="svg2"
   width="24.136442"
   height="23.958269"
   viewBox="0 0 24.136442 23.958269"
   sodipodi:docname="TUDelftLogo.png"
   inkscape:export-filename="tud_white.svg"
   inkscape:export-xdpi="96"
   inkscape:export-ydpi="96"
   xmlns:inkscape="http://www.inkscape.org/namespaces/inkscape"
   xmlns:sodipodi="http://sodipodi.sourceforge.net/DTD/sodipodi-0.dtd"
   xmlns="http://www.w3.org/2000/svg"
   xmlns:svg="http://www.w3.org/2000/svg">
  <defs
     id="defs6" />
  <sodipodi:namedview
     id="namedview4"
     pagecolor="#ffffff"
     bordercolor="#000000"
     borderopacity="0.25"
     inkscape:showpageshadow="2"
     inkscape:pageopacity="0.0"
     inkscape:pagecheckerboard="0"
     inkscape:deskcolor="#d1d1d1"
     showgrid="false" />
  <g
     inkscape:groupmode="layer"
     inkscape:label="Image"
     id="g8"
     transform="translate(-9.7555398,-4.5770869)">
    <path
       style="fill:#009fda;fill-opacity:1;stroke-width:0.04"
       d="m 17.784955,28.511767 c -0.09064,-0.03657 -0.05571,-0.233073 0.06138,-0.345249 0.06126,-0.05869 0.356651,-0.213027 0.656428,-0.342974 0.64563,-0.279867 0.840942,-0.40424 1.430577,-0.91098 1.017553,-0.874497 1.765828,-1.936136 2.218369,-3.147379 0.449656,-1.203523 0.866663,-3.269743 0.767058,-3.800683 -0.0552,-0.294236 -0.213887,-0.17309 -0.541978,0.413756 -0.482358,0.862777 -1.313901,1.642427 -2.219176,2.080687 -1.079717,0.522711 -2.012106,0.461581 -2.609853,-0.171109 -0.59095,-0.625495 -0.768379,-1.450966 -0.490858,-2.283678 0.156955,-0.470952 0.395665,-0.890073 1.096891,-1.9259 0.966503,-1.427683 1.28723,-2.010447 1.537349,-2.793372 0.210641,-0.659352 0.265996,-1.132567 0.137495,-1.175401 -0.06254,-0.02085 -0.326509,0.266938 -0.521703,0.568774 -0.871282,1.347291 -1.36488,1.832413 -3.511977,3.451669 -0.572,0.43138 -1.229,0.935314 -1.46,1.119853 -1.386124,1.107333 -2.245597,2.075637 -2.759106,3.108477 -0.494572,0.994753 -0.599289,1.50081 -0.63752,3.080898 -0.02498,1.032648 -0.03667,1.178474 -0.105731,1.32 -0.05874,0.12036 -0.104661,0.162206 -0.188598,0.171851 -0.09935,0.01142 -0.121092,-0.0095 -0.207917,-0.2 -0.116179,-0.254913 -0.249495,-0.760788 -0.414474,-1.572749 -0.2392512,-1.177503 -0.2654234,-1.433261 -0.2660625,-2.6 -6.289e-4,-1.147916 0.033136,-1.480384 0.2396794,-2.36 0.4755451,-2.025226 1.6935311,-3.978907 3.4842281,-5.588792 1.274136,-1.145483 2.717162,-2.101593 4.57107,-3.028667 2.055163,-1.027715 3.089095,-1.389787 6.404431,-2.2427611 1.681621,-0.4326496 2.102046,-0.5467584 2.9,-0.7870973 2.497756,-0.7523086 4.240574,-1.6746332 5.463475,-2.8913487 0.356348,-0.3545457 0.437748,-0.4593771 0.513516,-0.6613334 0.04952,-0.132 0.106072,-0.2805 0.125667,-0.33 0.04164,-0.105181 0.21693,-0.1229937 0.338143,-0.034361 0.118399,0.086576 0.129198,0.5282493 0.02317,0.9475487 -0.168379,0.6658495 -0.502309,1.2076966 -1.143967,1.8562424 -0.683686,0.691026 -1.363008,1.2238078 -3.24,2.5410818 -2.137131,1.4998406 -2.997774,2.1710986 -3.740234,2.9171956 -0.519464,0.522009 -0.84321,0.949223 -1.087818,1.435482 -0.253278,0.503493 -0.329642,0.860189 -0.300576,1.403995 0.05865,1.097208 0.553079,1.783345 1.490336,2.068176 0.473655,0.143943 1.33861,0.08121 2.027304,-0.147024 0.628653,-0.208341 1.611758,-0.792592 2.210988,-1.313972 0.713258,-0.620594 0.800307,-0.670784 0.941612,-0.542906 0.130628,0.118217 0.09783,0.347896 -0.161714,1.132283 -0.749363,2.264746 -2.06746,4.573152 -3.794202,6.644851 -0.465167,0.558094 -1.65022,1.754772 -2.145696,2.166745 -1.929724,1.604503 -3.751493,2.475776 -5.714809,2.733144 -0.443154,0.05809 -1.266084,0.07905 -1.375191,0.03503 z"
       id="path170" />
  </g>
</svg>
